<svg class="logo" version="1.1" viewBox="0 0 762 381" xmlns="http://www.w3.org/2000/svg"  xmlns:xlink="http://www.w3.org/1999/xlink"  
>
 <g id="logo">
   <g>
    <path class="fil0" d="M0 368l80 0 28 -72 159 0 1 1 81 0 -119 -297 -80 0 -150 368zm133 -138l55 -143 54 143 -109 0z"/>
    <polygon class="fil0" points="271,310 353,310 381,381 298,381 "/>
   </g>
   <path class="fil1" d="M408 259l37 0 0 -19c10,13 24,20 41,20 36,0 60,-26 60,-65 0,-39 -24,-66 -60,-66 -18,0 -32,7 -41,20l0 -67 -37 0 0 177zm37 -65c0,-21 13,-35 32,-35 19,0 32,15 32,35 0,21 -13,36 -32,36 -19,0 -32,-15 -32,-36z"/>
   <path id="1" class="fil1" d="M569 94c0,12 8,20 20,20 11,0 19,-8 19,-20 0,-12 -8,-21 -19,-21 -12,0 -20,9 -20,21zm1 165l37 0 0 -129 -37 0 0 129z"/>
   <path id="2" class="fil1" d="M631 190c0,37 23,62 56,62 17,0 30,-7 39,-19l0 15c0,17 -13,29 -34,29 -15,0 -29,-5 -40,-13l-14 26c15,10 34,16 56,16 41,0 68,-23 68,-59l0 -117 -36 0 0 18c-9,-12 -22,-19 -40,-19 -32,0 -55,25 -55,61zm35 1c0,-20 12,-33 30,-33 18,0 30,13 30,33 0,20 -12,33 -30,33 -18,0 -30,-13 -30,-33z"/>
  </g>
</svg>


